<mxfile host="app.diagrams.net" modified="2023-10-11T02:44:56.865Z" agent="Mozilla/5.0 (X11; Linux x86_64) AppleWebKit/537.36 (KHTML, like Gecko) Chrome/117.0.0.0 Safari/537.36 Edg/117.0.2045.55" etag="sdVW_5d0oZVjhcxgZrX5" version="22.0.4" type="github">
  <diagram name="Page-1" id="3CbqzY-EIUyOhgvGnmPf">
    <mxGraphModel dx="1730" dy="462" grid="1" gridSize="10" guides="1" tooltips="1" connect="1" arrows="1" fold="1" page="1" pageScale="1" pageWidth="850" pageHeight="1100" math="0" shadow="0">
      <root>
        <mxCell id="0" />
        <mxCell id="1" parent="0" />
        <mxCell id="YYdOWZ6g8PFGc_LYNeHY-24" style="edgeStyle=orthogonalEdgeStyle;rounded=0;orthogonalLoop=1;jettySize=auto;html=1;exitX=1;exitY=0.25;exitDx=0;exitDy=0;entryX=0.5;entryY=1;entryDx=0;entryDy=0;" edge="1" parent="1" source="YYdOWZ6g8PFGc_LYNeHY-23" target="pSdrsPi_HXzI0qn5BM3s-109">
          <mxGeometry relative="1" as="geometry" />
        </mxCell>
        <mxCell id="YYdOWZ6g8PFGc_LYNeHY-23" value="" style="html=1;dashed=0;whiteSpace=wrap;" vertex="1" parent="1">
          <mxGeometry x="-20" y="390" width="100" height="100" as="geometry" />
        </mxCell>
        <mxCell id="YYdOWZ6g8PFGc_LYNeHY-20" value="" style="html=1;dashed=0;whiteSpace=wrap;" vertex="1" parent="1">
          <mxGeometry x="760" y="430" width="100" height="100" as="geometry" />
        </mxCell>
        <mxCell id="YYdOWZ6g8PFGc_LYNeHY-14" style="edgeStyle=orthogonalEdgeStyle;rounded=0;orthogonalLoop=1;jettySize=auto;html=1;exitX=0;exitY=0;exitDx=0;exitDy=0;entryX=1;entryY=0;entryDx=0;entryDy=0;" edge="1" parent="1" source="YYdOWZ6g8PFGc_LYNeHY-13" target="pSdrsPi_HXzI0qn5BM3s-120">
          <mxGeometry relative="1" as="geometry" />
        </mxCell>
        <mxCell id="YYdOWZ6g8PFGc_LYNeHY-13" value="" style="html=1;dashed=0;whiteSpace=wrap;" vertex="1" parent="1">
          <mxGeometry x="750" y="70" width="100" height="100" as="geometry" />
        </mxCell>
        <mxCell id="YYdOWZ6g8PFGc_LYNeHY-9" style="edgeStyle=orthogonalEdgeStyle;rounded=0;orthogonalLoop=1;jettySize=auto;html=1;exitX=1;exitY=0.25;exitDx=0;exitDy=0;entryX=0;entryY=0.5;entryDx=0;entryDy=0;" edge="1" parent="1" source="YYdOWZ6g8PFGc_LYNeHY-5" target="pSdrsPi_HXzI0qn5BM3s-112">
          <mxGeometry relative="1" as="geometry" />
        </mxCell>
        <mxCell id="YYdOWZ6g8PFGc_LYNeHY-5" value="" style="html=1;dashed=0;whiteSpace=wrap;" vertex="1" parent="1">
          <mxGeometry x="-10" y="70" width="100" height="100" as="geometry" />
        </mxCell>
        <mxCell id="YYdOWZ6g8PFGc_LYNeHY-1" value="" style="shape=ellipse;html=1;dashed=0;whiteSpace=wrap;perimeter=ellipsePerimeter;" vertex="1" parent="1">
          <mxGeometry x="250" y="120" width="330" height="280" as="geometry" />
        </mxCell>
        <mxCell id="pSdrsPi_HXzI0qn5BM3s-91" value="&lt;font style=&quot;font-size: 20px;&quot;&gt;Online Shopping System&lt;/font&gt;" style="text;strokeColor=none;align=center;fillColor=none;html=1;verticalAlign=middle;whiteSpace=wrap;rounded=0;" parent="1" vertex="1">
          <mxGeometry x="330" y="220" width="170" height="70" as="geometry" />
        </mxCell>
        <mxCell id="pSdrsPi_HXzI0qn5BM3s-92" value="Customer" style="text;strokeColor=none;align=center;fillColor=none;html=1;verticalAlign=middle;whiteSpace=wrap;rounded=0;" parent="1" vertex="1">
          <mxGeometry x="5" y="110" width="70" height="20" as="geometry" />
        </mxCell>
        <mxCell id="pSdrsPi_HXzI0qn5BM3s-93" value="Payment Gateway" style="text;strokeColor=none;align=center;fillColor=none;html=1;verticalAlign=middle;whiteSpace=wrap;rounded=0;" parent="1" vertex="1">
          <mxGeometry x="765" y="110" width="70" height="20" as="geometry" />
        </mxCell>
        <mxCell id="pSdrsPi_HXzI0qn5BM3s-94" value="Inventory Database" style="text;strokeColor=none;align=center;fillColor=none;html=1;verticalAlign=middle;whiteSpace=wrap;rounded=0;" parent="1" vertex="1">
          <mxGeometry x="-10" y="420" width="70" height="20" as="geometry" />
        </mxCell>
        <mxCell id="pSdrsPi_HXzI0qn5BM3s-97" value="Administrator" style="text;strokeColor=none;align=center;fillColor=none;html=1;verticalAlign=middle;whiteSpace=wrap;rounded=0;" parent="1" vertex="1">
          <mxGeometry x="775" y="470" width="70" height="20" as="geometry" />
        </mxCell>
        <mxCell id="pSdrsPi_HXzI0qn5BM3s-104" value="Order Information " style="text;strokeColor=none;align=center;fillColor=none;html=1;verticalAlign=middle;whiteSpace=wrap;rounded=0;" parent="1" vertex="1">
          <mxGeometry x="110" y="140" width="70" height="20" as="geometry" />
        </mxCell>
        <mxCell id="YYdOWZ6g8PFGc_LYNeHY-3" style="edgeStyle=orthogonalEdgeStyle;rounded=0;orthogonalLoop=1;jettySize=auto;html=1;exitX=0.75;exitY=0;exitDx=0;exitDy=0;" edge="1" parent="1" source="pSdrsPi_HXzI0qn5BM3s-109" target="YYdOWZ6g8PFGc_LYNeHY-1">
          <mxGeometry relative="1" as="geometry" />
        </mxCell>
        <mxCell id="pSdrsPi_HXzI0qn5BM3s-109" value="Product Information" style="text;strokeColor=none;align=center;fillColor=none;html=1;verticalAlign=middle;whiteSpace=wrap;rounded=0;" parent="1" vertex="1">
          <mxGeometry x="140" y="360" width="70" height="20" as="geometry" />
        </mxCell>
        <mxCell id="YYdOWZ6g8PFGc_LYNeHY-15" style="edgeStyle=orthogonalEdgeStyle;rounded=0;orthogonalLoop=1;jettySize=auto;html=1;exitX=1;exitY=0.5;exitDx=0;exitDy=0;entryX=0;entryY=0.5;entryDx=0;entryDy=0;" edge="1" parent="1" source="pSdrsPi_HXzI0qn5BM3s-112" target="YYdOWZ6g8PFGc_LYNeHY-13">
          <mxGeometry relative="1" as="geometry" />
        </mxCell>
        <mxCell id="pSdrsPi_HXzI0qn5BM3s-112" value="Payment Data" style="text;strokeColor=none;align=center;fillColor=none;html=1;verticalAlign=middle;whiteSpace=wrap;rounded=0;" parent="1" vertex="1">
          <mxGeometry x="355" y="90" width="70" height="20" as="geometry" />
        </mxCell>
        <mxCell id="pSdrsPi_HXzI0qn5BM3s-120" value="Confirmation" style="text;strokeColor=none;align=center;fillColor=none;html=1;verticalAlign=middle;whiteSpace=wrap;rounded=0;" parent="1" vertex="1">
          <mxGeometry x="180" y="50" width="70" height="20" as="geometry" />
        </mxCell>
        <mxCell id="YYdOWZ6g8PFGc_LYNeHY-6" style="edgeStyle=orthogonalEdgeStyle;rounded=0;orthogonalLoop=1;jettySize=auto;html=1;exitX=0;exitY=0.5;exitDx=0;exitDy=0;entryX=0.57;entryY=0;entryDx=0;entryDy=0;entryPerimeter=0;" edge="1" parent="1" source="pSdrsPi_HXzI0qn5BM3s-120" target="YYdOWZ6g8PFGc_LYNeHY-5">
          <mxGeometry relative="1" as="geometry" />
        </mxCell>
        <mxCell id="YYdOWZ6g8PFGc_LYNeHY-11" style="edgeStyle=orthogonalEdgeStyle;rounded=0;orthogonalLoop=1;jettySize=auto;html=1;exitX=1;exitY=1;exitDx=0;exitDy=0;entryX=0.048;entryY=0.289;entryDx=0;entryDy=0;entryPerimeter=0;" edge="1" parent="1" source="pSdrsPi_HXzI0qn5BM3s-104" target="YYdOWZ6g8PFGc_LYNeHY-1">
          <mxGeometry relative="1" as="geometry" />
        </mxCell>
        <mxCell id="YYdOWZ6g8PFGc_LYNeHY-12" style="edgeStyle=orthogonalEdgeStyle;rounded=0;orthogonalLoop=1;jettySize=auto;html=1;exitX=1;exitY=0.75;exitDx=0;exitDy=0;entryX=0.171;entryY=-0.1;entryDx=0;entryDy=0;entryPerimeter=0;" edge="1" parent="1" source="YYdOWZ6g8PFGc_LYNeHY-5" target="pSdrsPi_HXzI0qn5BM3s-104">
          <mxGeometry relative="1" as="geometry" />
        </mxCell>
        <mxCell id="YYdOWZ6g8PFGc_LYNeHY-22" style="edgeStyle=orthogonalEdgeStyle;rounded=0;orthogonalLoop=1;jettySize=auto;html=1;exitX=0.5;exitY=0;exitDx=0;exitDy=0;entryX=1.003;entryY=0.479;entryDx=0;entryDy=0;entryPerimeter=0;" edge="1" parent="1" source="YYdOWZ6g8PFGc_LYNeHY-20" target="YYdOWZ6g8PFGc_LYNeHY-1">
          <mxGeometry relative="1" as="geometry" />
        </mxCell>
      </root>
    </mxGraphModel>
  </diagram>
</mxfile>
